<!-- Generated by IcoMoon.io -->
<svg version="1.1" xmlns="http://www.w3.org/2000/svg" width="512" height="512" viewBox="0 0 512 512">
<title></title>
<g id="icomoon-ignore">
</g>
<path fill="#000" d="M0 256v256h512v-512h-512v256zM246.934 89.067c2.133 1.6 0 9.067-4.267 16-8 11.734-7.466 12.266 5.333 12.266 15.466 0 24 14.4 12.8 21.867-4.267 2.667-16 4.8-26.133 4.8-17.6 0-20.267 2.133-38.4 33.066-40.534 70.4-49.6 94.934-34.666 94.934 14.4 0 31.466-18.666 55.466-59.2 27.733-48 29.867-50.133 38.4-40 4.266 5.333 0.533 16.534-16 48-11.733 22.934-20.267 42.666-18.667 44.8 3.733 3.2 62.933-56 84.267-84.267 12.267-16.534 14.933-17.6 22.4-10.666 6.933 6.934 5.334 11.733-13.334 42.666-11.733 19.2-27.733 46.4-35.2 61.334l-13.866 26.666 35.733-30.933c29.334-26.133 35.733-29.867 38.933-22.4 2.134 6.934-7.466 19.2-39.466 48.533-24 21.866-51.733 51.733-62.4 66.134-14.4 19.733-22.4 26.666-32.534 26.666-10.667 0-13.333-2.666-13.333-13.334 0-17.6 11.2-39.466 29.334-56 13.334-12.267 29.334-37.334 29.334-45.334 0-2.134-7.466 2.666-16.534 10.134-17.066 14.4-30.934 17.6-40 8.534-3.2-3.2-10.666-3.2-21.867 1.067-12.8 4.8-20.267 4.8-30.4 0-22.4-10.134-18.666-36.267 12.8-95.466l26.666-49.6h-18.666c-12.267 0-18.666-2.667-18.666-7.466 0-11.733 12.8-18.666 38.4-22.4 19.2-2.666 26.133-6.4 33.066-18.666 8.534-14.4 23.466-20.266 31.466-11.734zM377.067 275.2c4.267 11.2-16 31.466-27.2 27.2-10.134-3.733-11.2-20.267-2.134-29.334s25.6-8 29.334 2.134z"></path>
</svg>
